<?xml version="1.0" encoding="UTF-8" standalone="no"?>
<svg
   xmlns:dc="http://purl.org/dc/elements/1.1/"
   xmlns:cc="http://creativecommons.org/ns#"
   xmlns:rdf="http://www.w3.org/1999/02/22-rdf-syntax-ns#"
   xmlns:svg="http://www.w3.org/2000/svg"
   xmlns="http://www.w3.org/2000/svg"
   xmlns:sodipodi="http://sodipodi.sourceforge.net/DTD/sodipodi-0.dtd"
   xmlns:inkscape="http://www.inkscape.org/namespaces/inkscape"
   version="1.1"
   id="Map"
   class="gen-by-synoptic-designer"
   viewBox="0 0 1349 894"
   xml:space="preserve"
   sodipodi:docname="transferir.svg"
   inkscape:version="0.92.3 (2405546, 2018-03-11)"><metadata
     id="metadata3779"><rdf:RDF><cc:Work
         rdf:about=""><dc:format>image/svg+xml</dc:format><dc:type
           rdf:resource="http://purl.org/dc/dcmitype/StillImage" /></cc:Work></rdf:RDF></metadata><defs
     id="defs3777" /><sodipodi:namedview
     pagecolor="#ffffff"
     bordercolor="#666666"
     borderopacity="1"
     objecttolerance="10"
     gridtolerance="10"
     guidetolerance="10"
     inkscape:pageopacity="0"
     inkscape:pageshadow="2"
     inkscape:window-width="1920"
     inkscape:window-height="1001"
     id="namedview3775"
     showgrid="false"
     inkscape:zoom="0.90380313"
     inkscape:cx="674.5"
     inkscape:cy="447"
     inkscape:window-x="-9"
     inkscape:window-y="-9"
     inkscape:window-maximized="1"
     inkscape:current-layer="Map" /><polygon
     id="_x31_"
     title=""
     points="898,622,817,781,940,817,963,657,937,642,905,636,906,626" /><polygon
     id="_x33_"
     title=""
     points="697,629,687,659,651,728,723,750,811,575,744,541,724,578,707,615" /><polygon
     id="_x32_"
     title=""
     points="763,678,742,720,726,751,813,777,896,618,814,576,805,596,784,639" /><polygon
     id="_x34_"
     title=""
     points="606,718,615,712,619,722,648,729,740,540,612,471,626,607,597,712" /><polygon
     id="_x35_"
     title=""
     points="538,613,549,650,565,706,580,715,609,593,595,466,545,566,528,567" /><polygon
     id="_x36_"
     title=""
     points="495,462,506,499,522,555,537,564,591,466,546,442,502,415,484,407" /><polygon
     id="_x37_"
     title=""
     points="419,836,419,862,467,874,512,834,550,716,469,688,435,714,424,733" /><polygon
     id="_x38_"
     title=""
     points="349,761,341,790,338,834,412,857,419,788,419,726,379,715,363,717" /><polygon
     id="_x39_"
     title=""
     points="446,618,446,617,450,617,450,618,456,618,456,619,461,619,461,620,465,620,465,619,466,619,466,618,468,618,468,617,469,617,469,616,471,616,471,615,472,615,472,614,474,614,474,613,475,613,475,608,476,608,476,607,477,607,477,606,478,606,478,594,479,594,479,591,480,591,480,589,481,589,481,587,482,587,482,585,483,585,483,582,484,582,484,581,485,581,485,579,486,579,486,577,487,577,487,575,488,575,488,574,489,574,489,572,490,572,490,570,491,570,491,568,492,568,492,566,493,566,493,564,494,564,494,562,495,562,495,560,496,560,496,558,497,558,497,555,499,555,499,554,501,554,501,553,503,553,503,552,505,552,505,551,507,551,507,550,509,550,509,549,511,549,511,548,513,548,513,547,515,547,515,551,516,551,516,554,517,554,517,558,518,558,518,561,519,561,519,565,520,565,520,568,521,568,521,572,522,572,522,575,523,575,523,579,524,579,524,582,525,582,525,586,526,586,526,589,527,589,527,593,528,593,528,596,529,596,529,600,530,600,530,603,531,603,531,607,532,607,532,610,533,610,533,614,534,614,534,617,535,617,535,621,536,621,536,624,537,624,537,628,538,628,538,631,539,631,539,635,540,635,540,638,541,638,541,642,542,642,542,645,543,645,543,649,544,649,544,652,545,652,545,656,546,656,546,659,547,659,547,663,548,663,548,666,549,666,549,670,550,670,550,673,551,673,551,677,552,677,552,680,553,680,553,684,554,684,554,687,555,687,555,691,556,691,556,694,557,694,557,695,556,695,556,696,551,696,551,697,547,697,547,698,544,698,544,699,543,699,543,700,541,700,541,701,540,701,540,700,535,700,535,699,531,699,531,698,527,698,527,697,523,697,523,696,519,696,519,695,515,695,515,694,511,694,511,693,508,693,508,692,505,692,505,691,501,691,501,690,498,690,498,689,495,689,495,688,492,688,492,687,489,687,489,686,486,686,486,685,483,685,483,684,480,684,480,683,477,683,477,682,474,682,474,681,471,681,471,680,464,680,464,681,463,681,463,680,460,680,460,681,458,681,458,682,457,682,457,683,455,683,455,684,454,684,454,685,452,685,452,690,453,690,453,694,451,694,451,695,450,695,450,696,449,696,449,697,447,697,447,698,446,698,446,699,444,699,444,700,443,700,443,701,441,701,441,702,440,702,440,703,439,703,439,704,437,704,437,705,436,705,436,706,434,706,434,707,433,707,433,708,432,708,432,709,430,709,430,710,429,710,429,711,427,711,427,710,426,710,426,687,427,687,427,665,428,665,428,643,429,643,429,630,430,630,430,629,431,629,431,628,432,628,432,627,434,627,434,626,435,626,435,625,437,625,437,624,438,624,438,623,439,623,439,622,441,622,441,621,442,621,442,620,443,620,443,619,445,619" /><polygon
     id="_x31_0"
     title=""
     points="447,430,447,429,453,429,453,430,460,430,460,431,467,431,467,432,474,432,474,433,481,433,481,434,483,434,483,437,484,437,484,441,485,441,485,445,486,445,486,448,487,448,487,452,488,452,488,456,489,456,489,460,490,460,490,464,491,464,491,468,492,468,492,471,493,471,492,471,492,472,490,472,490,473,489,473,489,478,490,478,490,482,491,482,491,485,496,485,496,484,496,485,497,485,497,488,498,488,498,492,499,492,499,495,500,495,500,499,501,499,501,502,502,502,502,506,503,506,503,509,504,509,504,513,505,513,505,517,506,517,506,520,507,520,507,524,508,524,508,527,509,527,509,531,510,531,510,534,511,534,511,538,512,538,511,538,511,539,510,539,510,540,508,540,508,541,507,541,507,542,505,542,505,543,504,543,504,544,502,544,502,545,501,545,501,546,499,546,499,547,498,547,498,548,496,548,496,549,494,549,494,550,493,550,493,551,492,551,492,553,491,553,491,555,490,555,490,557,489,557,489,558,488,558,488,560,487,560,487,562,486,562,486,564,485,564,485,565,484,565,484,567,483,567,483,569,482,569,482,571,481,571,481,572,480,572,480,573,479,573,479,575,478,575,478,576,477,576,477,577,475,577,475,578,474,578,474,579,473,579,473,580,471,580,471,581,470,581,470,582,468,582,468,583,467,583,467,584,465,584,465,585,464,585,464,586,462,586,462,587,448,587,448,588,441,588,441,589,439,589,439,590,438,590,438,591,436,591,436,592,434,592,434,593,431,593,431,594,431,593,430,593,430,592,429,592,429,580,430,580,430,560,431,560,431,547,432,547,432,545,433,545,433,541,434,541,434,536,433,536,433,534,432,534,432,500,433,500,433,496,434,496,434,494,435,494,435,490,434,490,434,488,433,488,433,484,432,484,432,466,433,466,433,440,434,440,434,434,435,434,435,433,436,433,436,432,438,432,438,431,440,431,440,430" /><polygon
     id="_x31_1"
     title=""
     points="398,526,398,525,400,525,400,524,401,524,401,523,403,523,403,522,404,522,404,521,405,521,405,520,407,520,407,519,408,519,408,518,410,518,410,517,411,517,411,516,412,516,412,515,414,515,414,514,415,514,415,513,417,513,417,512,418,512,418,511,420,511,420,510,421,510,421,509,422,509,422,508,423,508,423,535,422,535,422,536,421,536,421,537,419,537,419,542,420,542,420,544,421,544,421,545,422,545,422,547,423,547,423,554,422,554,422,573,421,573,421,591,420,591,420,593,419,593,419,594,417,594,417,595,416,595,416,596,414,596,414,597,407,597,407,598,404,598,404,599,401,599,401,600,399,600,399,601,396,601,396,602,394,602,394,616,394,613,393,613,393,611,386,611,386,609,383,609,383,611,378,611,378,609,375,609,375,611,371,611,371,617,371,614,370,614,370,611,369,611,369,609,365,609,365,612,364,612,364,615,363,615,363,619,366,619,366,617,368,617,368,619,374,619,374,614,375,614,375,619,380,619,380,614,380,619,383,619,383,614,383,619,393,619,393,617,393,630,394,630,394,631,401,631,401,632,412,632,412,633,417,633,417,632,419,632,419,631,420,631,420,640,419,640,419,682,418,682,418,704,417,704,417,705,416,705,416,706,414,706,414,705,408,705,408,704,401,704,401,703,395,703,395,702,389,702,389,701,383,701,383,700,377,700,377,699,370,699,370,698,364,698,364,697,358,697,358,696,352,696,352,695,347,695,347,694,344,694,344,693,342,693,342,692,340,692,340,690,339,690,339,689,338,689,338,687,337,687,337,685,336,685,336,684,334,684,334,683,332,683,332,682,330,682,330,681,329,681,329,679,328,679,328,678,327,678,327,676,326,676,326,675,325,675,325,674,324,674,324,673,323,673,323,672,322,672,322,671,320,671,320,665,321,665,321,660,322,660,322,655,323,655,323,650,324,650,324,646,325,646,325,642,326,642,326,639,327,639,327,635,328,635,328,632,329,632,329,628,330,628,330,625,331,625,331,619,332,619,332,614,333,614,333,611,334,611,334,609,335,609,335,607,336,607,336,605,337,605,337,602,338,602,338,600,339,600,339,598,340,598,340,597,341,597,341,595,342,595,342,594,343,594,343,593,344,593,344,592,345,592,345,590,346,590,346,589,347,589,347,587,348,587,348,586,349,586,349,584,350,584,350,582,351,582,351,578,352,578,352,568,351,568,351,563,350,563,350,561,349,561,349,560,350,560,350,559,352,559,352,558,353,558,353,557,354,557,354,556,356,556,356,555,357,555,357,554,359,554,359,553,360,553,360,552,362,552,362,551,363,551,363,550,364,550,364,549,366,549,366,548,367,548,367,547,369,547,369,546,370,546,370,545,371,545,371,544,373,544,373,543,374,543,374,542,376,542,376,541,377,541,377,540,379,540,379,539,380,539,380,538,381,538,381,537,383,537,383,536,384,536,384,535,386,535,386,534,387,534,387,533,388,533,388,532,390,532,390,531,391,531,391,530,393,530,393,529,394,529,394,528,395,528,395,527,397,527" /><polygon
     id="_x31_2"
     title=""
     points="388,424,388,425,393,425,393,426,398,426,398,427,402,427,402,428,408,428,408,429,415,429,415,430,423,430,423,431,425,431,425,449,424,449,424,450,422,450,422,451,421,451,421,452,419,452,419,453,418,453,418,454,417,454,417,455,415,455,415,456,414,456,414,457,412,457,412,461,413,461,413,463,414,463,414,464,418,464,418,463,420,463,420,462,421,462,421,461,422,461,422,460,424,460,424,459,424,477,423,477,423,490,422,490,422,491,421,491,421,492,420,492,420,493,419,493,419,498,420,498,420,501,421,501,421,502,422,502,422,503,423,503,422,503,422,504,420,504,420,505,419,505,419,506,417,506,417,507,416,507,416,508,415,508,415,509,413,509,413,510,412,510,412,511,410,511,410,512,409,512,409,513,408,513,408,514,406,514,406,515,405,515,405,516,403,516,403,517,402,517,402,518,400,518,400,519,399,519,399,520,398,520,398,521,396,521,396,522,395,522,395,523,393,523,393,524,392,524,392,525,390,525,390,526,389,526,389,527,388,527,388,528,386,528,386,529,385,529,385,530,383,530,383,531,382,531,382,532,380,532,380,533,379,533,379,534,378,534,378,535,376,535,376,536,375,536,375,537,373,537,373,538,372,538,372,539,371,539,371,540,369,540,369,541,368,541,368,542,366,542,366,543,365,543,365,544,363,544,363,545,362,545,362,546,361,546,361,547,359,547,359,548,358,548,358,549,356,549,356,550,355,550,355,551,353,551,353,552,352,552,352,553,351,553,351,554,349,554,349,555,348,555,348,556,346,556,346,557,345,557,345,558,344,558,344,557,343,557,343,556,341,556,341,555,340,555,340,554,338,554,338,553,336,553,336,552,334,552,334,551,332,551,332,550,331,550,331,549,311,549,311,548,309,548,309,547,306,547,306,546,303,546,303,545,302,545,302,544,301,544,301,542,300,542,300,541,299,541,299,540,298,540,298,536,299,536,299,534,300,534,300,532,301,532,301,530,302,530,302,529,303,529,303,527,304,527,304,526,305,526,305,525,306,525,306,524,307,524,307,523,308,523,308,522,309,522,309,521,310,521,310,520,311,520,311,519,312,519,312,518,313,518,313,516,314,516,314,515,316,515,316,514,317,514,317,513,318,513,318,512,320,512,320,511,321,511,321,510,322,510,322,509,324,509,324,508,325,508,325,507,327,507,327,506,328,506,328,505,330,505,330,504,331,504,331,503,332,503,332,502,334,502,334,501,335,501,335,500,336,500,336,499,337,499,337,498,338,498,338,497,339,497,339,496,340,496,340,495,341,495,341,494,342,494,342,493,343,493,343,492,344,492,344,490,345,490,345,489,346,489,346,488,347,488,347,487,348,487,348,486,349,486,349,485,350,485,350,484,351,484,351,483,352,483,352,482,353,482,353,481,354,481,354,480,355,480,355,477,356,477,356,474,357,474,357,471,358,471,358,468,359,468,359,465,360,465,360,463,361,463,361,461,362,461,362,460,363,460,363,459,365,459,365,457,366,457,366,454,367,454,367,452,368,452,368,450,369,450,369,448,370,448,370,446,371,446,371,444,372,444,372,442,373,442,373,439,374,439,374,437,375,437,375,435,376,435,376,433,377,433,377,430,378,430,378,428,380,428,380,427,381,427,381,426,383,426,383,425,384,425" /><polygon
     id="_x31_3"
     title=""
     points="407,275,407,274,411,274,411,273,415,273,415,272,419,272,419,271,423,271,423,270,427,270,427,269,431,269,431,268,435,268,435,267,439,267,439,266,443,266,443,265,445,265,445,269,446,269,446,276,447,276,447,282,448,282,448,288,449,288,449,295,450,295,450,301,451,301,451,307,452,307,452,314,453,314,453,320,454,320,454,327,455,327,455,333,456,333,456,339,457,339,457,346,458,346,458,352,459,352,459,357,460,357,460,362,461,362,461,367,462,367,462,373,463,373,463,378,464,378,464,383,465,383,465,388,466,388,466,394,467,394,467,399,468,399,468,404,469,404,469,409,470,409,470,414,471,414,471,418,472,418,472,420,471,420,471,419,468,419,468,418,466,418,466,417,461,417,461,418,451,418,451,417,439,417,439,418,435,418,435,417,432,417,432,416,431,416,431,413,430,413,430,410,429,410,429,405,428,405,428,400,427,400,427,396,426,396,426,393,425,393,425,389,424,389,424,387,423,387,423,386,422,386,422,385,421,385,421,384,420,384,420,383,419,383,419,382,415,382,415,381,409,381,409,380,406,380,406,381,398,381,398,382,385,382,385,381,383,381,383,380,380,380,380,378,379,378,379,376,378,376,378,373,377,373,377,344,376,344,376,337,375,337,375,331,374,331,374,324,373,324,373,318,372,318,372,312,371,312,371,306,372,306,372,305,381,305,381,304,391,304,391,303,393,303,393,278,396,278,396,277,400,277,400,276,403,276,403,275" /><polygon
     id="_x31_4"
     title=""
     points="422,156,422,155,427,155,427,156,428,156,428,163,429,163,429,169,430,169,430,175,431,175,431,181,432,181,432,187,433,187,433,193,434,193,434,199,435,199,435,205,436,205,429,205,430,205,430,203,426,203,426,206,425,206,425,207,425,204,424,204,424,203,421,203,421,207,422,207,422,209,423,209,423,212,424,212,424,213,427,213,427,212,427,213,437,213,437,217,438,217,438,223,439,223,439,229,440,229,440,235,441,235,441,242,442,242,442,248,443,248,443,254,444,254,444,259,441,259,441,260,437,260,437,261,434,261,434,262,430,262,430,263,426,263,426,264,423,264,423,265,419,265,419,266,415,266,415,267,411,267,411,268,407,268,407,269,404,269,404,270,400,270,400,271,397,271,397,267,396,267,396,261,395,261,395,258,394,258,394,254,393,254,393,252,392,252,392,251,391,251,391,246,390,246,390,231,389,231,389,227,390,227,390,223,391,223,391,220,392,220,392,216,393,216,393,211,394,211,394,213,400,213,400,208,400,213,403,213,403,208,403,213,413,213,413,211,413,213,419,213,419,211,420,211,420,207,419,207,419,205,413,205,413,206,413,205,412,205,413,205,413,202,407,202,407,205,406,205,406,203,403,203,403,205,397,205,397,211,397,208,396,208,396,205,395,205,395,203,393,203,393,185,392,185,392,169,391,169,391,157,392,157,392,156" /><polygon
     id="_x31_5"
     title=""
     points="383,72,383,71,384,71,384,70,386,70,386,69,388,69,388,68,388,69,390,69,390,70,394,70,394,65,395,65,395,57,396,57,396,56,397,56,397,54,398,54,398,53,399,53,399,52,400,52,400,51,401,51,401,52,403,52,403,53,405,53,405,54,406,54,406,55,408,55,408,56,410,56,410,57,412,57,412,58,413,58,413,59,415,59,415,60,417,60,417,61,419,61,419,62,421,62,421,63,422,63,422,64,424,64,424,65,426,65,426,66,428,66,428,67,430,67,430,68,431,68,431,69,433,69,433,70,435,70,435,71,437,71,437,72,439,72,439,73,440,73,440,74,442,74,442,75,444,75,444,76,446,76,446,77,447,77,447,78,449,78,449,79,451,79,451,80,453,80,453,81,455,81,455,82,456,82,456,83,458,83,458,84,460,84,460,85,462,85,462,86,464,86,464,87,465,87,465,88,464,88,464,90,463,90,463,92,462,92,462,93,461,93,461,94,460,94,460,95,458,95,458,96,457,96,457,97,456,97,456,98,455,98,455,99,454,99,454,100,453,100,453,101,452,101,452,102,451,102,451,103,450,103,450,104,449,104,449,105,448,105,448,106,447,106,447,107,446,107,446,108,445,108,445,109,444,109,444,110,443,110,443,111,442,111,442,112,441,112,441,113,439,113,439,114,438,114,438,115,437,115,437,116,436,116,436,117,435,117,435,118,434,118,434,119,433,119,433,120,432,120,432,121,431,121,431,122,430,122,430,124,429,124,429,144,428,144,428,149,413,149,413,150,396,150,396,151,388,151,388,150,387,150,387,148,386,148,386,146,385,146,385,143,384,143,384,140,383,140,383,137,382,137,382,134,381,134,381,131,380,131,380,129,379,129,379,126,378,126,378,123,377,123,377,120,376,120,376,117,375,117,375,114,374,114,374,112,373,112,373,109,372,109,372,106,371,106,371,103,370,103,370,100,369,100,369,97,368,97,368,95,367,95,367,92,366,92,366,87,367,87,367,86,368,86,368,85,369,85,369,84,370,84,370,83,371,83,371,82,372,82,372,81,373,81,373,80,374,80,374,79,375,79,375,78,376,78,376,77,377,77,377,76,378,76,378,75,379,75,379,74,380,74,380,73,381,73,381,72" /><polygon
     id="_x31_6"
     title=""
     points="317,115,315,204,348,270,385,259,385,177,357,90,390,46,351,27" /><polygon
     id="_x31_7"
     title=""
     points="472,104,472,103,474,103,474,102,475,102,475,101,477,101,477,100,478,100,478,99,486,99,486,98,486,99,488,99,488,100,490,100,490,101,491,101,491,102,493,102,493,103,495,103,495,104,496,104,496,105,498,105,498,106,500,106,500,107,501,107,501,108,503,108,503,109,505,109,505,110,506,110,506,111,508,111,508,112,510,112,510,113,512,113,512,114,513,114,513,115,515,115,515,116,517,116,517,117,518,117,518,118,520,118,520,119,522,119,522,120,523,120,523,121,525,121,525,122,527,122,527,123,528,123,528,124,530,124,530,125,532,125,532,126,533,126,533,127,535,127,535,128,537,128,537,129,539,129,539,130,540,130,540,131,542,131,542,132,544,132,544,133,545,133,545,134,544,134,544,136,543,136,543,138,542,138,542,140,541,140,541,142,540,142,540,144,539,144,539,146,538,146,538,148,537,148,537,150,536,150,536,152,535,152,535,154,534,154,534,156,533,156,533,158,532,158,532,160,531,160,531,161,530,161,530,163,529,163,529,165,528,165,528,167,527,167,527,169,526,169,526,171,525,171,525,173,524,173,524,175,523,175,523,177,522,177,522,179,521,179,521,181,520,181,520,183,519,183,519,185,518,185,518,187,517,187,517,189,516,189,516,191,515,191,515,192,514,192,514,194,513,194,513,196,512,196,512,198,512,197,511,197,511,195,507,195,507,198,506,198,506,201,505,201,505,205,508,205,508,204,509,204,509,203,509,204,508,204,508,206,507,206,507,208,506,208,506,210,505,210,505,212,504,212,504,214,503,214,503,216,502,216,502,218,501,218,501,220,500,220,500,222,499,222,499,224,498,224,498,225,497,225,497,227,496,227,496,229,495,229,495,231,494,231,494,233,493,233,493,235,492,235,492,237,491,237,491,239,490,239,490,241,489,241,489,243,488,243,488,245,487,245,487,247,486,247,486,249,485,249,485,251,484,251,484,253,483,253,483,255,482,255,482,256,481,256,481,258,480,258,480,260,479,260,479,262,478,262,478,264,477,264,477,266,476,266,476,268,475,268,475,270,474,270,474,272,473,272,473,274,472,274,472,276,471,276,471,278,470,278,470,280,469,280,469,282,468,282,468,284,467,284,467,286,466,286,466,287,465,287,465,289,464,289,464,290,464,288,462,288,462,285,461,285,461,279,460,279,460,274,459,274,459,268,458,268,458,262,457,262,457,257,456,257,456,251,455,251,455,245,454,245,454,239,453,239,453,234,452,234,452,228,451,228,451,222,450,222,450,216,449,216,449,211,448,211,448,206,447,206,447,201,446,201,446,197,445,197,445,192,444,192,444,187,443,187,443,182,442,182,442,178,441,178,441,173,440,173,440,168,439,168,439,163,438,163,438,159,437,159,437,154,436,154,436,133,437,133,437,132,438,132,438,131,439,131,439,130,440,130,440,129,441,129,441,128,442,128,442,126,443,126,443,125,444,125,444,124,445,124,445,123,446,123,446,122,447,122,447,121,448,121,448,120,449,120,449,119,450,119,450,118,451,118,451,117,452,117,452,116,453,116,453,115,454,115,454,114,455,114,455,113,456,113,456,112,457,112,457,111,458,111,458,110,459,110,459,109,464,109,464,108,466,108,466,107,468,107,468,106,469,106,469,105,471,105" /><polygon
     id="_x31_8"
     title=""
     points="475,345,465,301,548,138,574,154" /><polygon
     id="_x31_9"
     title=""
     points="472,348 577,156 666,206 549,427 483,397 "
     transform="translate(1,3)" /><polygon
     id="_x32_0"
     title=""
     points="644,341,607,323,668,208,805,287,749,394" /><polygon
     id="_x32_1"
     title=""
     points="587,448,550,430,602,329,742,403,692,501" /><polygon
     id="_x32_2"
     title=""
     points="693,506,808,291,857,319,856,327,747,536" /><polygon
     id="_x32_3"
     title=""
     points="752,534,867,319,916,347,919,356,806,564" /><polygon
     id="_x32_4"
     title=""
     points="807,569,920,359,971,391,980,398,874,600" /><polygon
     id="_x32_5"
     title=""
     points="878,603,982,399,1012,417,971,591,918,577,906,616" /></svg>